<svg xmlns="http://www.w3.org/2000/svg" width="39" height="52" viewBox="0 0 39 52">
  <metadata><?xpacket begin="﻿" id="W5M0MpCehiHzreSzNTczkc9d"?>
<x:xmpmeta xmlns:x="adobe:ns:meta/" x:xmptk="Adobe XMP Core 5.6-c142 79.160924, 2017/07/13-01:06:39        ">
   <rdf:RDF xmlns:rdf="http://www.w3.org/1999/02/22-rdf-syntax-ns#">
      <rdf:Description rdf:about=""/>
   </rdf:RDF>
</x:xmpmeta>
                                                                                                    
                                                                                                    
                                                                                                    
                                                                                                    
                                                                                                    
                                                                                                    
                                                                                                    
                                                                                                    
                                                                                                    
                                                                                                    
                                                                                                    
                                                                                                    
                                                                                                    
                                                                                                    
                                                                                                    
                                                                                                    
                                                                                                    
                                                                                                    
                                                                                                    
                                                                                                    
                           
<?xpacket end="w"?></metadata>
<defs>
    <style>
      .cls-1 {
        fill: #fff;
        fill-rule: evenodd;
      }
    </style>
  </defs>
  <path id="Forma_1" data-name="Forma 1" class="cls-1" d="M44.913,40.278a0.79,0.79,0,0,0-.8.807v4.34a0.955,0.955,0,0,0,.8.807,0.79,0.79,0,0,0,.8-0.807v-4.34A0.791,0.791,0,0,0,44.913,40.278Zm3.482,0a0.79,0.79,0,0,0-.8.807v4.34a0.955,0.955,0,0,0,.8.807,0.79,0.79,0,0,0,.8-0.807v-4.34A0.791,0.791,0,0,0,48.4,40.278ZM66.2,73.688c-1.592,0-2.985-1.716-2.985-3.735s1.293-3.735,2.985-3.735a0.808,0.808,0,0,0,0-1.615H63.916c-1.393,0-2.487-1.716-2.487-3.735s1.194-3.735,2.487-3.735a0.808,0.808,0,0,0,0-1.615H52.375a7.443,7.443,0,0,0,1.293-.606c4.875-3.028,8.457-12.516,5.671-19.379-1.194-2.927-2.985-4.744-5.173-5.148-2.587-.5-5.074.807-6.566,1.817,0.1-2.927-.3-8.479-4.776-9.185a0.775,0.775,0,0,0-.9.606,0.786,0.786,0,0,0,.6.908c3.383,0.5,3.681,5.451,3.482,7.873-1.492-1.11-4.179-2.624-6.865-2.019-2.189.5-3.98,2.22-5.173,5.148-2.786,6.763.8,16.352,5.671,19.38a3.745,3.745,0,0,0,1.293.606H34.268c-2.189,0-3.979,2.322-3.979,5.249A5.921,5.921,0,0,0,31.582,64.6,5.213,5.213,0,0,0,28,69.751C28,72.678,29.99,75,32.477,75H66.2a0.79,0.79,0,0,0,.8-0.807A1,1,0,0,0,66.2,73.688ZM40.436,53.8c-4.278-2.624-7.561-11.406-5.074-17.462,0.995-2.523,2.388-3.936,4.079-4.239,3.184-.707,6.666,2.523,6.666,2.624a0.2,0.2,0,0,0,.2.1,0.306,0.306,0,0,1,.2.1h0.2a1.042,1.042,0,0,0,.5-0.2s3.482-3.23,6.666-2.624c1.691,0.4,3.084,1.817,4.079,4.239,2.487,6.056-.7,14.837-5.074,17.462-1.393.908-3.582,1.413-5.671-1.11l-0.1-.1a0.2,0.2,0,0,0-.2-0.1h-0.6a0.346,0.346,0,0,0-.2.1l-0.1.1C44.018,55.217,41.928,54.712,40.436,53.8Zm8.357,1.918H44.515A5.922,5.922,0,0,0,46.6,54.308,8.922,8.922,0,0,0,48.793,55.721ZM34.367,57.235H61.13a6.438,6.438,0,0,0,0,7.469H34.367c-1.393,0-2.487-1.716-2.487-3.735C31.781,58.951,32.974,57.235,34.367,57.235ZM32.477,73.688c-1.592,0-2.985-1.716-2.985-3.735s1.293-3.735,2.985-3.735H63.02a5.839,5.839,0,0,0-1.293,3.735,5.4,5.4,0,0,0,1.393,3.735H32.477ZM46.6,59.254H36.656a0.79,0.79,0,0,0-.8.807,0.857,0.857,0,0,0,.8.807H46.6A0.808,0.808,0,0,0,46.6,59.254Zm0,8.781H36.656a0.808,0.808,0,0,0,0,1.615H46.6a0.858,0.858,0,0,0,.8-0.808A0.791,0.791,0,0,0,46.6,68.035Zm10.944,2.422H47.5a0.808,0.808,0,0,0,0,1.615h9.949a0.79,0.79,0,0,0,.8-0.807A0.716,0.716,0,0,0,57.548,70.458Z" transform="translate(-28 -23)"/>
</svg>
