<svg xmlns="http://www.w3.org/2000/svg" width="58.094" height="53.969" viewBox="0 0 58.094 53.969">
  <metadata><?xpacket begin="﻿" id="W5M0MpCehiHzreSzNTczkc9d"?>
<x:xmpmeta xmlns:x="adobe:ns:meta/" x:xmptk="Adobe XMP Core 5.6-c142 79.160924, 2017/07/13-01:06:39        ">
   <rdf:RDF xmlns:rdf="http://www.w3.org/1999/02/22-rdf-syntax-ns#">
      <rdf:Description rdf:about=""/>
   </rdf:RDF>
</x:xmpmeta>
                                                                                                    
                                                                                                    
                                                                                                    
                                                                                                    
                                                                                                    
                                                                                                    
                                                                                                    
                                                                                                    
                                                                                                    
                                                                                                    
                                                                                                    
                                                                                                    
                                                                                                    
                                                                                                    
                                                                                                    
                                                                                                    
                                                                                                    
                                                                                                    
                                                                                                    
                                                                                                    
                           
<?xpacket end="w"?></metadata>
<defs>
    <style>
      .cls-1 {
        fill: #fff;
        fill-rule: evenodd;
      }
    </style>
  </defs>
  <path id="Forma_1" data-name="Forma 1" class="cls-1" d="M46.025,52.132a0.911,0.911,0,0,0,1.012,0,5.921,5.921,0,0,0,0-9.86,0.911,0.911,0,0,0-1.012,0A5.92,5.92,0,0,0,46.025,52.132Zm0.506-7.962a4.116,4.116,0,0,1,0,6.064A4.116,4.116,0,0,1,46.531,44.17ZM60.4,75.075a0.906,0.906,0,0,1-.908.9H45.443a0.909,0.909,0,0,1-.747-0.39,0.9,0.9,0,0,1-.1-0.833l5.92-15.576c2.308-6.075,5.422-9.42,8.768-9.42s6.46,3.346,8.768,9.42l0.131,0.345a0.907,0.907,0,0,1-1.7.638l-0.13-.344c-1.993-5.244-4.57-8.252-7.07-8.252s-5.077,3.008-7.07,8.253L46.757,74.172H59.49A0.906,0.906,0,0,1,60.4,75.075ZM28.312,58.583a10,10,0,0,1,1.305-9.365,0.911,0.911,0,0,1,.95-0.348,10.045,10.045,0,0,1,6.707,5.4,0.907,0.907,0,0,1-1.637.783,8.224,8.224,0,0,0-4.9-4.258A8.218,8.218,0,0,0,33.8,62.339a18.607,18.607,0,0,1-1.409-4.409c0-.013,0-0.026-0.006-0.038a0.908,0.908,0,0,1,1.793-.286,16.739,16.739,0,0,0,3.01,6.9,0.906,0.906,0,0,1-1.463,1.07q-0.273-.369-0.526-0.748A10.066,10.066,0,0,1,28.312,58.583ZM41.752,74.172H40.886V41.2a4.356,4.356,0,0,1,3.307-4.219,0.9,0.9,0,0,0,.685-0.876V30.331h3.306v5.777a0.9,0.9,0,0,0,.685.876A4.355,4.355,0,0,1,52.176,41.2v8.441a0.908,0.908,0,0,0,1.816,0V41.2A6.156,6.156,0,0,0,50,35.447v-5.3a0.9,0.9,0,0,0,.357-0.719V22.906a0.906,0.906,0,0,0-.908-0.9H43.612a0.906,0.906,0,0,0-.908.9v6.521a0.9,0.9,0,0,0,.358.719v5.3A6.156,6.156,0,0,0,39.07,41.2V75.075a0.906,0.906,0,0,0,.908.9h1.774A0.9,0.9,0,1,0,41.752,74.172ZM44.52,23.809h4.021v4.714H44.52V23.809ZM63.511,58.46a0.9,0.9,0,1,1,0,1.807H63.239a0.9,0.9,0,1,1,0-1.807h0.273ZM36.543,67.637c-0.617-.059-1.233-0.083-1.846-0.087a10.111,10.111,0,0,0-15.715,5.314,0.9,0.9,0,0,0,.312.959A10.113,10.113,0,0,0,35.027,69.36q0.671,0.011,1.343.076A0.9,0.9,0,1,0,36.543,67.637ZM28.087,73.77a8.3,8.3,0,0,1-7.164-1,8.293,8.293,0,0,1,10.5-4.924,19.06,19.06,0,0,0-2.148.516l-0.023.007h0A0.9,0.9,0,0,0,29.8,70.09a17.1,17.1,0,0,1,3.223-.646A8.254,8.254,0,0,1,28.087,73.77Zm33.939-4.283a0.906,0.906,0,0,1-.908.9H60.846a0.9,0.9,0,1,1,0-1.807h0.273A0.906,0.906,0,0,1,62.026,69.487Zm10.421,2.328a0.906,0.906,0,0,1-.908.9H71.267a0.9,0.9,0,1,1,0-1.807h0.272A0.906,0.906,0,0,1,72.447,71.815ZM56.233,59.363a0.906,0.906,0,0,1-.908.9H55.053a0.9,0.9,0,1,1,0-1.807h0.273A0.906,0.906,0,0,1,56.233,59.363ZM76.959,74.756l-2.839-7.47c-1.514-3.985-3.363-4.821-4.647-4.821s-3.133.837-4.647,4.821l-2.839,7.47a0.9,0.9,0,0,0,.849,1.223H76.109A0.9,0.9,0,0,0,76.959,74.756ZM64.15,74.172l2.374-6.247c0.869-2.288,1.971-3.654,2.948-3.654s2.079,1.366,2.948,3.654L74.8,74.172H64.15Zm-7.612-11a0.906,0.906,0,0,1,.908-0.9h0.272a0.9,0.9,0,1,1,0,1.807H57.446A0.906,0.906,0,0,1,56.538,63.169Zm0-7.214a0.906,0.906,0,0,1,.908-0.9h0.272a0.9,0.9,0,1,1,0,1.807H57.446A0.906,0.906,0,0,1,56.538,55.955Zm2.608,4.312a0.9,0.9,0,1,1,0-1.807h0.272a0.9,0.9,0,1,1,0,1.807H59.146Zm1.7-3.408a0.9,0.9,0,1,1,0-1.807h0.273a0.9,0.9,0,1,1,0,1.807H60.846Z" transform="translate(-18.938 -22)"/>
</svg>
