<svg xmlns="http://www.w3.org/2000/svg" width="64" height="64" viewBox="0 0 64 64">
  <metadata><?xpacket begin="﻿" id="W5M0MpCehiHzreSzNTczkc9d"?>
<x:xmpmeta xmlns:x="adobe:ns:meta/" x:xmptk="Adobe XMP Core 5.6-c142 79.160924, 2017/07/13-01:06:39        ">
   <rdf:RDF xmlns:rdf="http://www.w3.org/1999/02/22-rdf-syntax-ns#">
      <rdf:Description rdf:about=""/>
   </rdf:RDF>
</x:xmpmeta>
                                                                                                    
                                                                                                    
                                                                                                    
                                                                                                    
                                                                                                    
                                                                                                    
                                                                                                    
                                                                                                    
                                                                                                    
                                                                                                    
                                                                                                    
                                                                                                    
                                                                                                    
                                                                                                    
                                                                                                    
                                                                                                    
                                                                                                    
                                                                                                    
                                                                                                    
                                                                                                    
                           
<?xpacket end="w"?></metadata>
<defs>
    <style>
      .cls-1 {
        fill: #fff;
        fill-rule: evenodd;
      }
    </style>
  </defs>
  <path id="Forma_1" data-name="Forma 1" class="cls-1" d="M70.4,72h-0.56a3.936,3.936,0,0,0,.56-2,3.985,3.985,0,0,0-2.054-3.465L66.466,46h0.408A3.489,3.489,0,0,0,68.9,39.641a2.943,2.943,0,0,0,.236-2.852L74.99,24H68.823L65.8,29H63.568l1.008-5H56.07l1.008,5H54.846l-3.024-5H45.655l5.859,12.789a2.944,2.944,0,0,0,.236,2.852A3.489,3.489,0,0,0,53.772,46H54.18L52.3,66.535A3.98,3.98,0,0,0,50.244,70a3.936,3.936,0,0,0,.56,2h-0.56a3,3,0,1,0,0,6H70.4A3,3,0,1,0,70.4,72ZM54.276,37h12.1a1,1,0,1,1,0,2h-12.1A1,1,0,1,1,54.276,37Zm-3.6-11,2.575,4.257A1.555,1.555,0,0,0,54.579,31h3.072a1.547,1.547,0,0,0,1.2-.562,1.518,1.518,0,0,0,.319-1.272L58.528,26h3.589l-0.638,3.165a1.517,1.517,0,0,0,.319,1.273,1.547,1.547,0,0,0,1.2.562h3.072a1.557,1.557,0,0,0,1.324-.744L69.965,26h1.9l-4.123,9H52.909l-4.123-9H50.68Zm3.091,18a1.5,1.5,0,1,1,0-3h13.1a1.5,1.5,0,1,1,0,3h-13.1Zm10.671,2,1.832,20H54.37L56.2,46h8.24ZM52.26,70a2.01,2.01,0,0,1,2.016-2h12.1a2,2,0,1,1,0,4h-12.1A2.01,2.01,0,0,1,52.26,70ZM70.4,76H50.244a1,1,0,1,1,0-2H70.4A1,1,0,1,1,70.4,76ZM43.188,72h-0.56a3.936,3.936,0,0,0,.56-2,3.985,3.985,0,0,0-2.054-3.465L39.252,46h0.408a3.5,3.5,0,0,0,.735-6.921l1.356-6.05a2.468,2.468,0,0,0-.493-2.1A2.506,2.506,0,0,0,39.3,30H37.14V29h0.633a2.384,2.384,0,0,0,2.391-2.373V24.373A2.383,2.383,0,0,0,37.774,22H37.141V21.373A2.385,2.385,0,0,0,34.75,19H31.468a2.384,2.384,0,0,0-2.391,2.373V22H28.445a2.384,2.384,0,0,0-2.391,2.373v2.255A2.384,2.384,0,0,0,28.445,29h0.633v1h-2.16a2.5,2.5,0,0,0-1.957.932,2.465,2.465,0,0,0-.493,2.1l1.356,6.05A3.5,3.5,0,0,0,26.558,46h0.408L25.084,66.535A3.983,3.983,0,0,0,23.03,70a3.936,3.936,0,0,0,.56,2H23.03a3,3,0,1,0,0,6H43.188A3,3,0,1,0,43.188,72ZM28.074,56H38.145l0.183,2H27.89Zm-0.367,4h10.8l0.55,6h-11.9Zm0.738-33a0.374,0.374,0,0,1-.375-0.373V24.373A0.374,0.374,0,0,1,28.445,24h2.649V21.373A0.374,0.374,0,0,1,31.468,21H34.75a0.374,0.374,0,0,1,.375.373V24h2.649a0.374,0.374,0,0,1,.375.373v2.255a0.374,0.374,0,0,1-.375.372H35.125v3H31.093V27H28.445Zm-1.913,5.184A0.489,0.489,0,0,1,26.918,32H39.3a0.489,0.489,0,0,1,.386.184,0.476,0.476,0,0,1,.1.412L38.348,39H27.869l-1.434-6.4A0.481,0.481,0,0,1,26.531,32.184ZM26.558,44a1.5,1.5,0,1,1,0-3h13.1a1.5,1.5,0,1,1,0,3h-13.1Zm10.671,2,0.733,8h-9.7l0.733-8h8.239ZM25.046,70a2.01,2.01,0,0,1,2.016-2h12.1a2,2,0,1,1,0,4h-12.1A2.01,2.01,0,0,1,25.046,70Zm18.143,6H23.03a1,1,0,1,1,0-2H43.188A1,1,0,1,1,43.188,76Z" transform="translate(-15.5 -16.5)"/>
</svg>
