<svg xmlns="http://www.w3.org/2000/svg" width="64" height="62" viewBox="0 0 64 62">
  <metadata><?xpacket begin="﻿" id="W5M0MpCehiHzreSzNTczkc9d"?>
<x:xmpmeta xmlns:x="adobe:ns:meta/" x:xmptk="Adobe XMP Core 5.6-c142 79.160924, 2017/07/13-01:06:39        ">
   <rdf:RDF xmlns:rdf="http://www.w3.org/1999/02/22-rdf-syntax-ns#">
      <rdf:Description rdf:about=""/>
   </rdf:RDF>
</x:xmpmeta>
                                                                                                    
                                                                                                    
                                                                                                    
                                                                                                    
                                                                                                    
                                                                                                    
                                                                                                    
                                                                                                    
                                                                                                    
                                                                                                    
                                                                                                    
                                                                                                    
                                                                                                    
                                                                                                    
                                                                                                    
                                                                                                    
                                                                                                    
                                                                                                    
                                                                                                    
                                                                                                    
                           
<?xpacket end="w"?></metadata>
<defs>
    <style>
      .cls-1 {
        fill: #fff;
        fill-rule: evenodd;
      }
    </style>
  </defs>
  <path id="Forma_1" data-name="Forma 1" class="cls-1" d="M39.281,44.125a0.969,0.969,0,0,0,0-1.937H21.844a0.969,0.969,0,0,0,0,1.938H39.281Zm-1.937-4.844a1.937,1.937,0,1,0-1.937-1.937A1.94,1.94,0,0,0,37.344,39.281ZM23.781,25.719a1.938,1.938,0,1,0-1.937-1.937A1.94,1.94,0,0,0,23.781,25.719ZM30.563,32.5a1.938,1.938,0,1,0-1.937-1.938A1.94,1.94,0,0,0,30.563,32.5Zm6.781,14.531a1.938,1.938,0,1,0,1.938,1.938A1.94,1.94,0,0,0,37.344,47.031Zm0,13.563a1.938,1.938,0,1,0,1.938,1.938A1.94,1.94,0,0,0,37.344,60.594ZM23.781,47.031a1.938,1.938,0,1,0,1.938,1.938A1.94,1.94,0,0,0,23.781,47.031Zm0,13.563a1.938,1.938,0,1,0,1.938,1.938A1.94,1.94,0,0,0,23.781,60.594Zm52.313-8.719H44.125V19.906A2.91,2.91,0,0,0,41.219,17H19.906A2.91,2.91,0,0,0,17,19.906v46.5a2.91,2.91,0,0,0,2.906,2.906h6.781v6.781A2.91,2.91,0,0,0,29.594,79h46.5A2.91,2.91,0,0,0,79,76.094V54.781A2.91,2.91,0,0,0,76.094,51.875ZM18.937,66.406v-46.5a0.97,0.97,0,0,1,.969-0.969H41.219a0.97,0.97,0,0,1,.969.969v46.5a0.97,0.97,0,0,1-.969.969H19.906A0.97,0.97,0,0,1,18.937,66.406Zm58.125,9.688a0.97,0.97,0,0,1-.969.969h-46.5a0.97,0.97,0,0,1-.969-0.969V69.313H41.219a2.91,2.91,0,0,0,2.906-2.906V53.813H76.094a0.97,0.97,0,0,1,.969.969V76.094ZM52.844,55.75a0.969,0.969,0,0,0-.969.969V74.156a0.969,0.969,0,1,0,1.938,0V56.719A0.969,0.969,0,0,0,52.844,55.75Zm-5.812.969a1.938,1.938,0,1,0,1.938,1.938A1.94,1.94,0,0,0,47.031,56.719ZM33.469,70.281a1.938,1.938,0,1,0,1.938,1.938A1.94,1.94,0,0,0,33.469,70.281ZM58.656,56.719a1.938,1.938,0,1,0,1.938,1.938A1.94,1.94,0,0,0,58.656,56.719Zm13.563,0a1.938,1.938,0,1,0,1.938,1.938A1.94,1.94,0,0,0,72.219,56.719ZM65.437,63.5a1.938,1.938,0,1,0,1.938,1.938A1.94,1.94,0,0,0,65.437,63.5Zm-6.781,6.781a1.938,1.938,0,1,0,1.938,1.938A1.94,1.94,0,0,0,58.656,70.281Zm13.563,0a1.938,1.938,0,1,0,1.938,1.938A1.94,1.94,0,0,0,72.219,70.281Z" transform="translate(-16 -17)"/>
</svg>
