<svg xmlns="http://www.w3.org/2000/svg" width="71" height="49" viewBox="0 0 71 49">
  <metadata><?xpacket begin="﻿" id="W5M0MpCehiHzreSzNTczkc9d"?>
<x:xmpmeta xmlns:x="adobe:ns:meta/" x:xmptk="Adobe XMP Core 5.6-c142 79.160924, 2017/07/13-01:06:39        ">
   <rdf:RDF xmlns:rdf="http://www.w3.org/1999/02/22-rdf-syntax-ns#">
      <rdf:Description rdf:about=""/>
   </rdf:RDF>
</x:xmpmeta>
                                                                                                    
                                                                                                    
                                                                                                    
                                                                                                    
                                                                                                    
                                                                                                    
                                                                                                    
                                                                                                    
                                                                                                    
                                                                                                    
                                                                                                    
                                                                                                    
                                                                                                    
                                                                                                    
                                                                                                    
                                                                                                    
                                                                                                    
                                                                                                    
                                                                                                    
                                                                                                    
                           
<?xpacket end="w"?></metadata>
<defs>
    <style>
      .cls-1 {
        fill: #fff;
        fill-rule: evenodd;
      }
    </style>
  </defs>
  <path id="Forma_1" data-name="Forma 1" class="cls-1" d="M82.893,63.911l-0.006-.032L78.541,41.794c0-.017-0.008-0.033-0.013-0.05,0.028-.337.043-0.677,0.043-1.021a12.195,12.195,0,0,0-22.43-6.679H50.834V31.792a3.344,3.344,0,0,0-2.219-3.148v-3.53a1.11,1.11,0,1,0-2.22,0v3.53a3.344,3.344,0,0,0-2.219,3.148v2.252h-5.3A12.241,12.241,0,0,0,35.6,30.662a12.108,12.108,0,0,0-6.959-2.183A12.238,12.238,0,0,0,16.438,40.722q0,0.5.04,0.994c-0.007.026-.014,0.051-0.019,0.078L12.113,63.879l-0.006.032a7.87,7.87,0,0,0-.107,1.3,7.764,7.764,0,0,0,14.491,3.9l9.445-16.145H59.064L68.505,69.1A7.763,7.763,0,0,0,83,65.208,7.881,7.881,0,0,0,82.893,63.911ZM46.4,31.792a1.109,1.109,0,1,1,2.218,0v2.252H46.4V31.792h0ZM28.643,30.706a9.93,9.93,0,0,1,9.3,6.367,1.11,1.11,0,0,0,2.071-.8H55a12.283,12.283,0,0,0,1.067,11.017,1.111,1.111,0,1,0,1.873-1.2,9.98,9.98,0,1,1,8.43,4.646,9.9,9.9,0,0,1-5.66-1.763,1.112,1.112,0,0,0-1.351,1.763h-23.7a12.248,12.248,0,0,0,5.194-10.016,1.11,1.11,0,1,0-2.22,0A9.985,9.985,0,1,1,28.643,30.706Zm-4.07,37.283A5.544,5.544,0,0,1,14.22,65.208a5.647,5.647,0,0,1,.074-0.914L17.82,46.377a12.212,12.212,0,0,0,10.823,6.589c0.288,0,.573-0.011.855-0.03a1.11,1.11,0,0,0,.254.03h3.609Zm50.66,2.783a5.568,5.568,0,0,1-4.809-2.789L61.639,52.966h3.618a1.1,1.1,0,0,0,.255-0.031c0.283,0.02.568,0.031,0.855,0.031A12.212,12.212,0,0,0,77.182,46.39l3.523,17.9a5.658,5.658,0,0,1,.074.914A5.562,5.562,0,0,1,75.233,70.773ZM45.286,47.4h4.438a1.114,1.114,0,0,0,0-2.227H45.286A1.114,1.114,0,0,0,45.286,47.4ZM25.315,41.836a1.114,1.114,0,0,0,0-2.227H21.986a1.114,1.114,0,0,0,0,2.227h3.328Zm6.657,0H35.3a1.114,1.114,0,0,0,0-2.227H31.972A1.114,1.114,0,0,0,31.972,41.836Zm-3.328,6.678a1.112,1.112,0,0,0,1.11-1.114V44.061a1.11,1.11,0,1,0-2.22,0V47.4A1.112,1.112,0,0,0,28.643,48.514Zm0-10.017a1.112,1.112,0,0,0,1.11-1.114V34.044a1.11,1.11,0,1,0-2.22,0v3.339A1.112,1.112,0,0,0,28.643,38.5Zm34.395,7.791a2.227,2.227,0,1,0-2.22-2.227A2.226,2.226,0,0,0,63.038,46.288Zm6.657,0a2.227,2.227,0,1,0-2.22-2.227A2.226,2.226,0,0,0,69.695,46.288ZM63.038,39.61a2.227,2.227,0,1,0-2.22-2.227A2.226,2.226,0,0,0,63.038,39.61Zm6.657,0a2.227,2.227,0,1,0-2.22-2.227A2.226,2.226,0,0,0,69.695,39.61Z" transform="translate(-12 -24)"/>
</svg>
