<svg xmlns="http://www.w3.org/2000/svg" width="70" height="36" viewBox="0 0 70 36">
  <metadata><?xpacket begin="﻿" id="W5M0MpCehiHzreSzNTczkc9d"?>
<x:xmpmeta xmlns:x="adobe:ns:meta/" x:xmptk="Adobe XMP Core 5.6-c142 79.160924, 2017/07/13-01:06:39        ">
   <rdf:RDF xmlns:rdf="http://www.w3.org/1999/02/22-rdf-syntax-ns#">
      <rdf:Description rdf:about=""/>
   </rdf:RDF>
</x:xmpmeta>
                                                                                                    
                                                                                                    
                                                                                                    
                                                                                                    
                                                                                                    
                                                                                                    
                                                                                                    
                                                                                                    
                                                                                                    
                                                                                                    
                                                                                                    
                                                                                                    
                                                                                                    
                                                                                                    
                                                                                                    
                                                                                                    
                                                                                                    
                                                                                                    
                                                                                                    
                                                                                                    
                           
<?xpacket end="w"?></metadata>
<defs>
    <style>
      .cls-1 {
        fill: #fff;
        fill-rule: evenodd;
      }
    </style>
  </defs>
  <path id="Forma_1" data-name="Forma 1" class="cls-1" d="M58.391,49.636a3.818,3.818,0,1,0,3.828,3.818A3.827,3.827,0,0,0,58.391,49.636Zm0,5.455a1.636,1.636,0,1,1,1.641-1.636A1.64,1.64,0,0,1,58.391,55.091ZM56.75,47.455a2.182,2.182,0,1,0-2.187-2.182A2.187,2.187,0,0,0,56.75,47.455Zm5.469-2.182a2.182,2.182,0,1,0-2.187-2.182A2.187,2.187,0,0,0,62.219,45.273Zm5.469-2.182A2.182,2.182,0,1,0,65.5,40.909,2.187,2.187,0,0,0,67.688,43.091Zm-1.641,3.273a3.818,3.818,0,1,0,3.828,3.818A3.828,3.828,0,0,0,66.047,46.364Zm0,5.455a1.636,1.636,0,1,1,1.641-1.636A1.64,1.64,0,0,1,66.047,51.818ZM73.7,43.091a3.818,3.818,0,1,0,3.828,3.818A3.827,3.827,0,0,0,73.7,43.091Zm0,5.455a1.636,1.636,0,1,1,1.641-1.636A1.64,1.64,0,0,1,73.7,48.545ZM72.579,36.731C66,32.391,57.269,30,48,30s-18,2.39-24.579,6.731C16.7,41.164,13,47.1,13,53.455c0,5.3,2.189,8.269,4.025,9.83A11.758,11.758,0,0,0,24.545,66a10.3,10.3,0,0,0,2.991-.36,14.928,14.928,0,0,0,2.2-.993c3.016-1.534,8.063-4.1,18.261-4.1s15.245,2.568,18.261,4.1a14.913,14.913,0,0,0,2.2.993,10.308,10.308,0,0,0,2.991.36,11.757,11.757,0,0,0,7.52-2.715C80.811,61.723,83,58.75,83,53.455,83,47.1,79.3,41.164,72.579,36.731Zm4.977,24.893a9.612,9.612,0,0,1-6.1,2.194,8.166,8.166,0,0,1-2.347-.264,13.881,13.881,0,0,1-1.853-.851c-2.981-1.517-8.531-4.34-19.255-4.34a45.419,45.419,0,0,0-12.474,1.578,35.667,35.667,0,0,0-6.78,2.762,13.892,13.892,0,0,1-1.853.851,8.166,8.166,0,0,1-2.347.264,9.612,9.612,0,0,1-6.1-2.194c-2.161-1.838-3.257-4.587-3.257-8.17,0-9.116,8.891-16.91,21.345-19.931A12.168,12.168,0,0,0,48.137,42a1.091,1.091,0,1,0,0-2.182,9.884,9.884,0,0,1-6.269-2.208,10.013,10.013,0,0,1-3.184-4.553,50.036,50.036,0,0,1,18.891.05,10,10,0,0,1-5.5,5.905,1.091,1.091,0,0,0,.865,2,12.193,12.193,0,0,0,6.777-7.43C72.042,36.651,80.813,44.4,80.813,53.455,80.813,57.038,79.717,59.787,77.555,61.624ZM43.945,51.047l-3.281,3.273a1.092,1.092,0,0,0,1.547,1.543l3.281-3.273A1.092,1.092,0,0,0,43.945,51.047Zm7.656,0L48.32,54.319a1.092,1.092,0,0,0,1.547,1.543l3.281-3.273A1.092,1.092,0,0,0,51.6,51.047Zm-22.2-12.319a8.727,8.727,0,1,0,8.75,8.727A8.748,8.748,0,0,0,29.406,38.727ZM30.5,53.907V51.818a1.094,1.094,0,0,0-2.187,0v2.089a6.569,6.569,0,0,1-5.376-5.362h2.095a1.091,1.091,0,1,0,0-2.182H22.937A6.568,6.568,0,0,1,28.312,41v2.089a1.094,1.094,0,0,0,2.188,0V41a6.569,6.569,0,0,1,5.376,5.362H33.781a1.091,1.091,0,1,0,0,2.182h2.095A6.569,6.569,0,0,1,30.5,53.907Zm-1.094-7.544a1.091,1.091,0,1,0,.774.319A1.1,1.1,0,0,0,29.406,46.364Z" transform="translate(-13 -30)"/>
</svg>
