<svg xmlns="http://www.w3.org/2000/svg" width="52" height="52" viewBox="0 0 52 52">
  <metadata><?xpacket begin="﻿" id="W5M0MpCehiHzreSzNTczkc9d"?>
<x:xmpmeta xmlns:x="adobe:ns:meta/" x:xmptk="Adobe XMP Core 5.6-c142 79.160924, 2017/07/13-01:06:39        ">
   <rdf:RDF xmlns:rdf="http://www.w3.org/1999/02/22-rdf-syntax-ns#">
      <rdf:Description rdf:about=""/>
   </rdf:RDF>
</x:xmpmeta>
                                                                                                    
                                                                                                    
                                                                                                    
                                                                                                    
                                                                                                    
                                                                                                    
                                                                                                    
                                                                                                    
                                                                                                    
                                                                                                    
                                                                                                    
                                                                                                    
                                                                                                    
                                                                                                    
                                                                                                    
                                                                                                    
                                                                                                    
                                                                                                    
                                                                                                    
                                                                                                    
                           
<?xpacket end="w"?></metadata>
<defs>
    <style>
      .cls-1 {
        fill: #fff;
        fill-rule: evenodd;
      }
    </style>
  </defs>
  <path class="cls-1" d="M52.041,69.25a4.01,4.01,0,0,1,.833-7.94H68.32a4,4,0,0,1,.84,7.92A4.914,4.914,0,0,0,74,73.408V75H47.209V73.408A4.9,4.9,0,0,0,52.041,69.25Zm17.716,4.158a6.449,6.449,0,0,1-2.217-4.886V67.677H68.32a2.389,2.389,0,1,0,0-4.775H52.874a2.441,2.441,0,1,0,0,4.882h0.795v0.759a6.433,6.433,0,0,1-2.226,4.866H69.757Zm-3.911-5.624H55.257v1.592H65.846V67.784Zm-13.024-9.02,1.693,0v0a2.4,2.4,0,0,0,2.3-1.592H55.257V55.579H57.8V45.713H56.957v-4.54l-3.019-3.026,1.123-1.125,1.9,1.9V35.974H57.8V34.355H56.951V32.763h1.694V29.474H56.938a3.232,3.232,0,0,1-3.27-3.237v-0.8H67.541v0.8a3.245,3.245,0,0,1-3.285,3.237H62.669v3.29h1.483v1.592H63.411v1.619h0.826v2.948l1.9-1.9,1.123,1.126-3.019,3.026v4.54H63.411V55.58h2.435v1.592H64.382a2.426,2.426,0,0,0,2.207,1.612l1.732,0,0,1.592-1.626,0v0l-0.1,0-13.773-.02Zm5.723-21.2v6.555h4.1V37.566h-4.1Zm0.841,8.147V55.58h2.436V45.713H59.387Zm0-11.358v1.619h2.436V34.355H59.387Zm1.694-1.592v-3.29H60.234v3.29h0.847Zm3.174-4.882a1.628,1.628,0,0,0,1.446-.849H55.493a1.628,1.628,0,0,0,1.446.849h7.317Zm-0.773,30.9a4.049,4.049,0,0,1-.743-1.608H58.456a4.014,4.014,0,0,1-.738,1.6ZM62.669,23H58.54v1.592h4.13V23ZM60.234,64.494H58.54v1.592h1.694V64.494Zm-2.541,0H56.21v1.592h1.483V64.494Zm8.154,0H64.152v1.592h1.694V64.494Zm-2.435,0H61.822v1.592h1.588V64.494Zm3.283,6.58H54.516v1.592H66.693V71.073ZM30.924,34.345H49.761a6.3,6.3,0,0,1,4.487,1.862l-1.123,1.126a4.721,4.721,0,0,0-3.364-1.4H30.924a1.648,1.648,0,0,0,0,3.3H43.118a3.24,3.24,0,0,1,0,6.48H39.053a1.648,1.648,0,0,0,0,3.3h9.756a3.24,3.24,0,0,1,0,6.48H35.8a1.648,1.648,0,0,0,0,3.3h8.13a3.24,3.24,0,0,1,0,6.48H43.118V63.674h0.813a1.648,1.648,0,0,0,0-3.3H35.8a3.24,3.24,0,0,1,0-6.48H48.809a1.648,1.648,0,0,0,0-3.3H39.053a3.24,3.24,0,0,1,0-6.48h4.065a1.648,1.648,0,0,0,0-3.3H30.924A3.24,3.24,0,0,1,30.924,34.345ZM30.9,63.751H29.313v1.592H30.9V63.751ZM24.827,59.6h2.439a1.241,1.241,0,0,0,0-2.482H26.453a2.833,2.833,0,0,1,0-5.665h2.439a1.241,1.241,0,0,0,0-2.482,3.648,3.648,0,0,1-3.64-3.647V44.917H26.84v0.407a2.056,2.056,0,0,0,2.051,2.056,2.833,2.833,0,0,1,0,5.665H26.453a1.241,1.241,0,0,0,0,2.482h0.813a2.833,2.833,0,0,1,0,5.665H24.827a1.241,1.241,0,0,0,0,2.482h3.658v1.592H24.827A2.833,2.833,0,0,1,24.827,59.6Zm2.051-19.515H25.289v4.033h1.588V40.086Zm-2.476.758v6.518a1.648,1.648,0,0,0,1.645,1.648V50.6a3.24,3.24,0,0,1-3.233-3.24V40.844H24.4Zm6.606,3.275H29.419V45.71h1.588V44.118ZM24.442,57.277H22.853v1.592h1.588V57.277Zm0-25.363H22.853v7.216h1.588V31.914Zm12.3,31.837a2.419,2.419,0,0,1,4.623,0h0.973v1.592H41.311a2.417,2.417,0,0,1-4.515,0H31.749V63.751h4.993ZM39.053,65.3a0.834,0.834,0,1,0-.832-0.834A0.833,0.833,0,0,0,39.053,65.3ZM61.822,41.678H59.387v1.592h2.436V41.678Zm0-3.184H59.387v1.592h2.436V38.494Z" transform="translate(-22 -23)"/>
</svg>
