<svg xmlns="http://www.w3.org/2000/svg" width="62" height="55" viewBox="0 0 62 55">
  <metadata><?xpacket begin="﻿" id="W5M0MpCehiHzreSzNTczkc9d"?>
<x:xmpmeta xmlns:x="adobe:ns:meta/" x:xmptk="Adobe XMP Core 5.6-c142 79.160924, 2017/07/13-01:06:39        ">
   <rdf:RDF xmlns:rdf="http://www.w3.org/1999/02/22-rdf-syntax-ns#">
      <rdf:Description rdf:about=""/>
   </rdf:RDF>
</x:xmpmeta>
                                                                                                    
                                                                                                    
                                                                                                    
                                                                                                    
                                                                                                    
                                                                                                    
                                                                                                    
                                                                                                    
                                                                                                    
                                                                                                    
                                                                                                    
                                                                                                    
                                                                                                    
                                                                                                    
                                                                                                    
                                                                                                    
                                                                                                    
                                                                                                    
                                                                                                    
                                                                                                    
                           
<?xpacket end="w"?></metadata>
<defs>
    <style>
      .cls-1 {
        fill: #fff;
        fill-rule: evenodd;
      }
    </style>
  </defs>
  <path id="Forma_1" data-name="Forma 1" class="cls-1" d="M73.357,42.67H72.23a0.908,0.908,0,1,0,0,1.816h1.127a1.093,1.093,0,1,1,0,2.185H70.075a1.831,1.831,0,0,0-1.82,1.837v1.529a0.908,0.908,0,0,0,1.816,0V48.508a0.061,0.061,0,0,1,.006-0.021h3.279A2.908,2.908,0,1,0,73.357,42.67Zm-1.368-7.911h-3.2a0.908,0.908,0,1,0,0,1.816h3.2a1.093,1.093,0,1,1,0,2.185h-4.74a2.908,2.908,0,1,0,0,5.817H68.89a0.908,0.908,0,1,0,0-1.816H67.249a1.093,1.093,0,1,1,0-2.185h4.74A2.908,2.908,0,1,0,71.989,34.759ZM53.207,43.918L51.85,41.486a1.208,1.208,0,0,0-2.176,0l-1.357,2.432a2.119,2.119,0,0,0,0,1.942l1.357,2.432a1.208,1.208,0,0,0,2.176,0l1.357-2.432A2.12,2.12,0,0,0,53.207,43.918Zm-1.591,1.066-0.854,1.53-0.854-1.53a0.4,0.4,0,0,1,0-.19l0.854-1.53,0.854,1.53A0.4,0.4,0,0,1,51.616,44.984ZM46.63,43.918l-1.357-2.432a1.208,1.208,0,0,0-2.176,0l-1.357,2.432a2.12,2.12,0,0,0,0,1.942L43.1,48.292a1.208,1.208,0,0,0,2.176,0L46.63,45.86A2.119,2.119,0,0,0,46.63,43.918Zm-1.591,1.066-0.854,1.53-0.854-1.53a0.4,0.4,0,0,1,0-.19l0.854-1.53,0.854,1.53A0.4,0.4,0,0,1,45.039,44.984ZM40.05,43.918l-1.357-2.432a1.208,1.208,0,0,0-2.176,0l-1.357,2.432a2.12,2.12,0,0,0,0,1.942l1.357,2.432a1.208,1.208,0,0,0,2.176,0L40.05,45.86A2.12,2.12,0,0,0,40.05,43.918Zm-1.591,1.066L37.6,46.514l-0.854-1.53a0.4,0.4,0,0,1,0-.19l0.854-1.53,0.854,1.53A0.4,0.4,0,0,1,38.458,44.984Zm2.68,5.287a0.908,0.908,0,0,0-.908.908v0.487a0.908,0.908,0,0,0,1.816,0V51.178A0.908,0.908,0,0,0,41.138,50.27Zm6.212,0a0.908,0.908,0,0,0-.908.908v0.487a0.908,0.908,0,0,0,1.817,0V51.178A0.908,0.908,0,0,0,47.35,50.27Zm6.212,0a0.908,0.908,0,0,0-.908.908v0.487a0.908,0.908,0,0,0,1.816,0V51.178A0.908,0.908,0,0,0,53.561,50.27Zm-18.757,0a0.908,0.908,0,0,0-.908.908v0.487a0.908,0.908,0,0,0,1.816,0V51.178A0.908,0.908,0,0,0,34.8,50.27Zm43.829,6.968a1.942,1.942,0,0,0-1.576-.745H72.952Q73,55.393,73,54.272a1.59,1.59,0,0,0-1.589-1.588H61.2a19.074,19.074,0,0,0,2.5-9.829,19.1,19.1,0,0,0-2.486-9.8c-1.689-2.773-3.982-4.3-6.458-4.3a6.154,6.154,0,0,0-2.928.765,0.915,0.915,0,0,0-.19-0.353,1.586,1.586,0,0,0-.961-0.527,6.437,6.437,0,0,0-3.245-4.414A2.129,2.129,0,0,0,45.594,21H43.145a2.129,2.129,0,0,0-1.83,3.224,6.435,6.435,0,0,0-3.245,4.414,1.585,1.585,0,0,0-.961.527c-0.168.193-.174,0.2-1.482,4.475-0.855,2.795-1.856,6.117-2.746,9.114-1.269,4.271-2.134,7.269-2.725,9.382-1.317-.84-2.007-2.347-2.445-5.183-0.756-4.9-1.613-10.446-7.4-13.269a1.518,1.518,0,0,0-2.058.764l-1.135,2.635a1.52,1.52,0,0,0,.7,1.95c2.789,1.424,3.334,4.14,4.056,8.82A36.211,36.211,0,0,0,24.064,56.7a12.378,12.378,0,0,0,6.1,6.815,15.467,15.467,0,0,0,4.488,5.88,1.6,1.6,0,0,0,1,.352h4.6a0.908,0.908,0,1,0,0-1.816H35.732a13.6,13.6,0,0,1-5.027-10.573c0.108-1.571,6.748-23.7,7.815-26.922H50.215c0.451,1.4,2.131,6.883,3.954,13.03,1.253,4.224,2.1,7.168,2.675,9.221H52.659a1.59,1.59,0,0,0-1.589,1.588,40.725,40.725,0,0,0,2.137,13.485c-0.067.057-.132,0.116-0.2,0.171H45.215a0.908,0.908,0,1,0,0,1.816h7.872a1.594,1.594,0,0,0,.822-0.231q0.292,0.656.61,1.262H50.712a1.094,1.094,0,0,0-.968,1.676l1.606,2.78A1.606,1.606,0,0,0,52.681,76H71.393a1.606,1.606,0,0,0,1.332-.769l1.606-2.78a1.094,1.094,0,0,0-.968-1.676H69.555q0.264-.5.509-1.041h3.727A2.833,2.833,0,0,0,76.4,67.768L76.992,65.7a0.908,0.908,0,0,0-1.747-.5l-0.592,2.072a1.021,1.021,0,0,1-.861.65H70.808q0.163-.444.314-0.9H73.1a0.908,0.908,0,0,0,.874-0.658l1.711-5.985a0.908,0.908,0,0,0-.873-1.157H72.745q0.048-.45.086-0.9h4.226a0.305,0.305,0,0,1,.124.02,0.236,0.236,0,0,1-.011.13l-0.749,2.622a0.908,0.908,0,0,0,1.747.5l0.749-2.622A1.94,1.94,0,0,0,78.634,57.238ZM29.292,60.867a12.135,12.135,0,0,1-3.555-4.879,34.778,34.778,0,0,1-2.06-8.414C23.009,43.25,22.43,39.5,18.9,37.546l0.9-2.09c4.676,2.443,5.377,6.978,6.117,11.773,0.418,2.706,1.171,5.374,3.744,6.712a16.412,16.412,0,0,0-.772,3.4A15.555,15.555,0,0,0,29.292,60.867ZM43.144,22.815h2.45a0.316,0.316,0,1,1,0,.633h-2.45A0.316,0.316,0,1,1,43.144,22.815Zm-3.2,5.8a4.6,4.6,0,0,1,8.858,0H39.94ZM55.859,42.774c-0.775-2.613-1.63-5.458-2.4-7.983a2.1,2.1,0,0,1,1.286-.822A2.625,2.625,0,0,1,56.4,35.24a0.908,0.908,0,0,0,1.462-1.078,4.17,4.17,0,0,0-3.115-2.008,3.124,3.124,0,0,0-1.872.718c-0.2-.641-0.356-1.164-0.489-1.594a4.427,4.427,0,0,1,2.361-.709c1.817,0,3.56,1.218,4.906,3.429a17.27,17.27,0,0,1,2.221,8.858A16.467,16.467,0,0,1,59,52.684H58.729c-0.141-.51-0.3-1.077-0.48-1.709a15.486,15.486,0,0,0,2.039-8.12,18.211,18.211,0,0,0-.543-4.506,0.908,0.908,0,0,0-1.76.45,16.392,16.392,0,0,1,.487,4.056,15.308,15.308,0,0,1-.96,5.549C57.056,46.83,56.511,44.971,55.859,42.774ZM72.153,72.591l-0.92,1.593H52.842l-0.92-1.593H72.153Zm-4.676-1.816H56.6c-2.309-3.841-3.679-9.8-3.71-16.276h18.3C71.156,60.972,69.786,66.934,67.477,70.776Zm6.129-9.746L72.414,65.2H71.661a38.381,38.381,0,0,0,.853-4.169h1.092Zm-3.613-.667-1.136-2.169a1.186,1.186,0,0,0-2.171,0l-1.135,2.169a2.211,2.211,0,0,0,0,1.914l1.135,2.169a1.186,1.186,0,0,0,2.171,0l1.136-2.169A2.212,2.212,0,0,0,69.993,60.362Zm-1.609,1.072L67.772,62.6l-0.608-1.16a0.5,0.5,0,0,1,0-.239l0.612-1.168,0.608,1.16A0.5,0.5,0,0,1,68.383,61.434ZM64.26,60.362l-1.135-2.169a1.186,1.186,0,0,0-2.171,0l-1.136,2.169a2.213,2.213,0,0,0,0,1.915l1.136,2.169a1.186,1.186,0,0,0,2.171,0l1.135-2.168A2.212,2.212,0,0,0,64.26,60.362ZM62.65,61.434L62.039,62.6l-0.608-1.16a0.5,0.5,0,0,1,0-.239l0.612-1.168,0.608,1.16A0.5,0.5,0,0,1,62.65,61.434Zm-4.127-1.073-1.136-2.169a1.186,1.186,0,0,0-2.171,0l-1.136,2.169a2.212,2.212,0,0,0,0,1.915l1.136,2.169a1.186,1.186,0,0,0,2.171,0l1.136-2.168A2.212,2.212,0,0,0,58.524,60.362Zm-1.61,1.073L56.3,62.6l-0.608-1.16a0.5,0.5,0,0,1,0-.239L56.3,60.035,56.91,61.2A0.493,0.493,0,0,1,56.914,61.434Zm2.469,4.819a0.908,0.908,0,0,0-.908.908v0.452a0.908,0.908,0,0,0,1.816,0V67.161A0.908,0.908,0,0,0,59.383,66.253Zm5.415,0a0.908,0.908,0,0,0-.908.908v0.452a0.908,0.908,0,0,0,1.816,0V67.161A0.908,0.908,0,0,0,64.8,66.253Z" transform="translate(-17 -21)"/>
</svg>
